<?xml version="1.0" encoding="UTF-8" standalone="no"?>
<svg
   xmlns:dc="http://purl.org/dc/elements/1.1/"
   xmlns:cc="http://creativecommons.org/ns#"
   xmlns:rdf="http://www.w3.org/1999/02/22-rdf-syntax-ns#"
   xmlns:svg="http://www.w3.org/2000/svg"
   xmlns="http://www.w3.org/2000/svg"
   xmlns:xlink="http://www.w3.org/1999/xlink"
   xmlns:sodipodi="http://sodipodi.sourceforge.net/DTD/sodipodi-0.dtd"
   xmlns:inkscape="http://www.inkscape.org/namespaces/inkscape"
   inkscape:version="1.0 (4035a4fb49, 2020-05-01)"
   sodipodi:docname="bigsur-icon-freetube.svg"
   id="svg6"
   style="fill-rule:evenodd;clip-rule:evenodd;stroke-linejoin:round;stroke-miterlimit:2;"
   xml:space="preserve"
   version="1.1"
   viewBox="0 0 1024 1024"
   height="1024"
   width="1024"><metadata
   id="metadata12"><rdf:RDF><cc:Work
       rdf:about=""><dc:format>image/svg+xml</dc:format><dc:type
         rdf:resource="http://purl.org/dc/dcmitype/StillImage" /><dc:title></dc:title></cc:Work></rdf:RDF></metadata><defs
   id="defs10"><linearGradient
   id="linearGradient1195"
   inkscape:collect="always"><stop
     id="stop1191"
     offset="0"
     style="stop-color:#fe3333;stop-opacity:1;" /><stop
     id="stop1193"
     offset="1"
     style="stop-color:#fe145d;stop-opacity:1" /></linearGradient><linearGradient
   id="linearGradient1187"
   inkscape:collect="always"><stop
     id="stop1183"
     offset="0"
     style="stop-color:#27a9e2;stop-opacity:1;" /><stop
     id="stop1185"
     offset="1"
     style="stop-color:#1b76cb;stop-opacity:1" /></linearGradient><linearGradient
   id="linearGradient1010"
   inkscape:collect="always"><stop
     id="stop1006"
     offset="0"
     style="stop-color:#d5d5d5;stop-opacity:1" /><stop
     id="stop1008"
     offset="1"
     style="stop-color:#ffffff;stop-opacity:1" /></linearGradient>
        
    <filter
   height="1.04704"
   y="-0.02352"
   width="1.04704"
   x="-0.02352"
   id="filter878"
   style="color-interpolation-filters:sRGB"
   inkscape:collect="always"><feGaussianBlur
     id="feGaussianBlur880"
     stdDeviation="8.0752"
     inkscape:collect="always" /></filter><linearGradient
   gradientUnits="userSpaceOnUse"
   y2="100"
   x2="500"
   y1="920"
   x1="500"
   id="linearGradient1012"
   xlink:href="#linearGradient1010"
   inkscape:collect="always" /><filter
   height="1.6727971"
   y="-0.33639857"
   width="1.1948511"
   x="-0.097425527"
   id="filter1098"
   style="color-interpolation-filters:sRGB"
   inkscape:collect="always"><feGaussianBlur
     id="feGaussianBlur1100"
     stdDeviation="33.424139"
     inkscape:collect="always" /></filter><filter
   height="1.1154797"
   y="-0.057739854"
   width="1.1154797"
   x="-0.057739854"
   id="filter1161"
   style="color-interpolation-filters:sRGB"
   inkscape:collect="always"><feGaussianBlur
     id="feGaussianBlur1163"
     stdDeviation="13.718074"
     inkscape:collect="always" /></filter><linearGradient
   gradientUnits="userSpaceOnUse"
   y2="640"
   x2="540"
   y1="420"
   x1="540"
   id="linearGradient1189"
   xlink:href="#linearGradient1187"
   inkscape:collect="always" /><linearGradient
   gradientUnits="userSpaceOnUse"
   y2="400"
   x2="600"
   y1="240"
   x1="600"
   id="linearGradient1197"
   xlink:href="#linearGradient1195"
   inkscape:collect="always" /><linearGradient
   gradientUnits="userSpaceOnUse"
   y2="780"
   x2="320"
   y1="260"
   x1="320"
   id="linearGradient1205"
   xlink:href="#linearGradient1195"
   inkscape:collect="always" /><filter
   inkscape:collect="always"
   style="color-interpolation-filters:sRGB"
   id="filter1161-2"
   x="-0.057739854"
   width="1.1154797"
   y="-0.057739854"
   height="1.1154797"><feGaussianBlur
     inkscape:collect="always"
     stdDeviation="13.718074"
     id="feGaussianBlur1163-6" /></filter><filter
   height="1.3281972"
   y="-0.16409859"
   width="1.1777912"
   x="-0.088895622"
   id="filter1375"
   style="color-interpolation-filters:sRGB"
   inkscape:collect="always"><feGaussianBlur
     id="feGaussianBlur1377"
     stdDeviation="8.8894684"
     inkscape:collect="always" /></filter><filter
   height="1.2359511"
   y="-0.11797554"
   width="1.2255628"
   x="-0.11278138"
   id="filter1380"
   style="color-interpolation-filters:sRGB"
   inkscape:collect="always"><feGaussianBlur
     id="feGaussianBlur1382"
     stdDeviation="26.794734"
     inkscape:collect="always" /></filter></defs><sodipodi:namedview
   inkscape:current-layer="svg6"
   inkscape:window-maximized="1"
   inkscape:window-y="-8"
   inkscape:window-x="-8"
   inkscape:cy="914.96823"
   inkscape:cx="491.80518"
   inkscape:zoom="1.0507812"
   showgrid="false"
   id="namedview8"
   inkscape:window-height="705"
   inkscape:window-width="1366"
   inkscape:pageshadow="2"
   inkscape:pageopacity="0"
   guidetolerance="10"
   gridtolerance="10"
   objecttolerance="10"
   borderopacity="1"
   bordercolor="#666666"
   pagecolor="#ffffff"><inkscape:grid
     id="grid837"
     type="xygrid" /></sodipodi:namedview>
    <path
   id="path2-31"
   style="clip-rule:evenodd;fill-rule:evenodd;stroke-linejoin:round;stroke-miterlimit:2;filter:url(#filter878);opacity:0.7"
   d="m 924,355.412 c 0,-9.782 0,-18.35 -0.056,-28.133 -0.049,-8.241 -0.144,-16.48 -0.368,-24.716 -0.484,-17.954 -1.543,-36.061 -4.736,-53.813 -3.238,-18.01 -8.526,-34.77 -16.859,-51.133 -8.192,-16.083 -18.893,-30.8 -31.661,-43.559 -12.764,-12.759 -27.486,-23.453 -43.574,-31.64 -16.381,-8.335 -33.159,-13.621 -51.188,-16.858 -17.755,-3.188 -35.867,-4.245 -53.82,-4.73 -8.243,-0.223 -16.485,-0.317 -24.73,-0.368 -9.788,-0.06 -19.576,-0.055 -29.364,-0.055 L 553.997,100 h -84.999 l -111.637,0.407 c -9.807,0 -19.614,-0.005 -29.421,0.055 -8.262,0.051 -16.52,0.145 -24.778,0.368 -17.995,0.485 -36.148,1.543 -53.945,4.735 -18.053,3.236 -34.857,8.52 -51.259,16.849 -16.123,8.188 -30.875,18.883 -43.667,31.644 -12.791,12.758 -23.511,27.472 -31.718,43.551 -8.356,16.372 -13.654,33.143 -16.9,51.162 -3.196,17.746 -4.255,35.846 -4.742,53.792 -0.222,8.237 -0.318,16.476 -0.368,24.716 -0.06,9.784 -0.563,21.937 -0.563,31.72 v 195.999 l 0.508,112.429 c 0,9.796 -0.004,19.592 0.055,29.388 0.05,8.252 0.146,16.502 0.369,24.751 0.486,17.976 1.547,36.109 4.746,53.886 3.245,18.032 8.542,34.818 16.891,51.201 8.208,16.106 18.931,30.842 31.722,43.619 12.791,12.777 27.54,23.485 43.659,31.684 16.412,8.346 33.224,13.639 51.288,16.88 17.789,3.193 35.936,4.252 53.924,4.737 8.258,0.223 16.517,0.318 24.779,0.368 9.807,0.059 19.613,0.059 29.42,0.059 h 310.283 c 9.788,0 19.576,0 29.364,-0.059 8.245,-0.05 16.487,-0.145 24.73,-0.368 17.96,-0.486 36.078,-1.546 53.841,-4.741 18.018,-3.241 34.788,-8.532 51.159,-16.873 16.092,-8.198 30.817,-18.908 43.582,-31.687 12.766,-12.775 23.466,-27.509 31.659,-43.612 8.337,-16.391 13.625,-33.184 16.865,-51.229 3.19,-17.77 4.248,-35.896 4.733,-53.865 0.223,-8.25 0.318,-16.5 0.367,-24.751 C 924,687.019 924,677.223 924,667.427 Z" /><path
   d="m 924,355.412 c 0,-9.782 0,-18.35 -0.056,-28.133 -0.049,-8.241 -0.144,-16.48 -0.368,-24.716 -0.484,-17.954 -1.543,-36.061 -4.736,-53.813 -3.238,-18.01 -8.526,-34.77 -16.859,-51.133 -8.192,-16.083 -18.893,-30.8 -31.661,-43.559 -12.764,-12.759 -27.486,-23.453 -43.574,-31.64 -16.381,-8.335 -33.159,-13.621 -51.188,-16.858 -17.755,-3.188 -35.867,-4.245 -53.82,-4.73 -8.243,-0.223 -16.485,-0.317 -24.73,-0.368 -9.788,-0.06 -19.576,-0.055 -29.364,-0.055 L 553.997,100 h -84.999 l -111.637,0.407 c -9.807,0 -19.614,-0.005 -29.421,0.055 -8.262,0.051 -16.52,0.145 -24.778,0.368 -17.995,0.485 -36.148,1.543 -53.945,4.735 -18.053,3.236 -34.857,8.52 -51.259,16.849 -16.123,8.188 -30.875,18.883 -43.667,31.644 -12.791,12.758 -23.511,27.472 -31.718,43.551 -8.356,16.372 -13.654,33.143 -16.9,51.162 -3.196,17.746 -4.255,35.846 -4.742,53.792 -0.222,8.237 -0.318,16.476 -0.368,24.716 -0.06,9.784 -0.563,21.937 -0.563,31.72 v 195.999 l 0.508,112.429 c 0,9.796 -0.004,19.592 0.055,29.388 0.05,8.252 0.146,16.502 0.369,24.751 0.486,17.976 1.547,36.109 4.746,53.886 3.245,18.032 8.542,34.818 16.891,51.201 8.208,16.106 18.931,30.842 31.722,43.619 12.791,12.777 27.54,23.485 43.659,31.684 16.412,8.346 33.224,13.639 51.288,16.88 17.789,3.193 35.936,4.252 53.924,4.737 8.258,0.223 16.517,0.318 24.779,0.368 9.807,0.059 19.613,0.059 29.42,0.059 h 310.283 c 9.788,0 19.576,0 29.364,-0.059 8.245,-0.05 16.487,-0.145 24.73,-0.368 17.96,-0.486 36.078,-1.546 53.841,-4.741 18.018,-3.241 34.788,-8.532 51.159,-16.873 16.092,-8.198 30.817,-18.908 43.582,-31.687 12.766,-12.775 23.466,-27.509 31.659,-43.612 8.337,-16.391 13.625,-33.184 16.865,-51.229 3.19,-17.77 4.248,-35.896 4.733,-53.865 0.223,-8.25 0.318,-16.5 0.367,-24.751 C 924,687.019 924,677.223 924,667.427 Z"
   style="fill:url(#linearGradient1012);fill-opacity:1"
   id="path2" /><path
   sodipodi:nodetypes="sccsccsscssccscc"
   d="m 270,260 c -40,0 -40,40 -40,40 v 440 c 0,0 2,88 90,90 19.99484,0.45443 60,0 60,0 V 300 c 0,0 0,-40 -40,-40 z m 180,0 c 0,0 -40,0 -40,40 v 70 c 0,40 40,40 40,40 h 260 c 0,0 88,-2 90,-90 0.45443,-19.99484 0,-60 0,-60 z"
   style="color:#000000;font-style:normal;font-variant:normal;font-weight:normal;font-stretch:normal;font-size:medium;line-height:normal;font-family:sans-serif;font-variant-ligatures:normal;font-variant-position:normal;font-variant-caps:normal;font-variant-numeric:normal;font-variant-alternates:normal;font-variant-east-asian:normal;font-feature-settings:normal;font-variation-settings:normal;text-indent:0;text-align:start;text-decoration:none;text-decoration-line:none;text-decoration-style:solid;text-decoration-color:#000000;letter-spacing:normal;word-spacing:normal;text-transform:none;writing-mode:lr-tb;direction:ltr;text-orientation:mixed;dominant-baseline:auto;baseline-shift:baseline;text-anchor:start;white-space:normal;shape-padding:0;shape-margin:0;inline-size:0;clip-rule:nonzero;display:inline;overflow:visible;visibility:visible;opacity:0.4;isolation:auto;mix-blend-mode:normal;color-interpolation:sRGB;color-interpolation-filters:linearRGB;solid-color:#000000;solid-opacity:1;vector-effect:none;fill:#ff0000;fill-opacity:1;fill-rule:nonzero;stroke:none;stroke-width:20;stroke-linecap:round;stroke-linejoin:round;stroke-miterlimit:2;stroke-dasharray:none;stroke-dashoffset:0;stroke-opacity:1;filter:url(#filter1161);color-rendering:auto;image-rendering:auto;shape-rendering:auto;text-rendering:auto;enable-background:accumulate;stop-color:#000000;stop-opacity:1"
   id="path1137-8" />
<path
   sodipodi:nodetypes="cccssccccccccsssscccscc"
   d="m 923.98047,685.51953 c -0.81074,131.75514 -106.72957,237.66476 -238.48828,238.46094 3.83863,-0.009 7.67699,-0.0159 11.51562,-0.0391 8.245,-0.05 16.48747,-0.14614 24.73047,-0.36914 17.96,-0.486 36.07684,-1.54524 53.83984,-4.74024 18.01801,-3.241 34.78916,-8.53205 51.16016,-16.87305 16.092,-8.198 30.81703,-18.9085 43.58203,-31.6875 12.766,-12.775 23.46521,-27.50832 31.65821,-43.61132 8.337,-16.391 13.62523,-33.18352 16.86523,-51.22852 3.19,-17.77 4.24742,-35.89623 4.73242,-53.86523 0.223,-8.25 0.31819,-16.50096 0.36719,-24.75196 0.0215,-3.76513 0.029,-7.52978 0.0371,-11.29492 z m -823.37695,15.51563 c 0.0564,6.84444 0.14314,13.68875 0.32812,20.53125 0.486,17.976 1.54709,36.10776 4.74609,53.88476 3.245,18.032 8.54163,34.81817 16.89063,51.20117 8.208,16.106 18.93166,30.84214 31.72266,43.61914 12.791,12.777 27.5392,23.4846 43.6582,31.6836 16.412,8.346 33.22506,13.63986 51.28906,16.88086 17.789,3.193 35.93583,4.25133 53.92383,4.73633 8.258,0.223 16.5173,0.31914 24.7793,0.36914 3.40009,0.0204 6.79928,0.0264 10.19921,0.0351 -126.37556,-0.95157 -228.89516,-98.60419 -237.5371,-222.9414 z"
   style="clip-rule:evenodd;fill:#000000;fill-rule:evenodd;stroke-linejoin:round;stroke-miterlimit:2;opacity:0.3;filter:url(#filter1098)"
   id="path2-3" /><path
   sodipodi:nodetypes="ccccccsc"
   id="path1137-8-1"
   style="color:#000000;font-style:normal;font-variant:normal;font-weight:normal;font-stretch:normal;font-size:medium;line-height:normal;font-family:sans-serif;font-variant-ligatures:normal;font-variant-position:normal;font-variant-caps:normal;font-variant-numeric:normal;font-variant-alternates:normal;font-variant-east-asian:normal;font-feature-settings:normal;font-variation-settings:normal;text-indent:0;text-align:start;text-decoration:none;text-decoration-line:none;text-decoration-style:solid;text-decoration-color:#000000;letter-spacing:normal;word-spacing:normal;text-transform:none;writing-mode:lr-tb;direction:ltr;text-orientation:mixed;dominant-baseline:auto;baseline-shift:baseline;text-anchor:start;white-space:normal;shape-padding:0;shape-margin:0;inline-size:0;clip-rule:nonzero;display:inline;overflow:visible;visibility:visible;opacity:0.4;isolation:auto;mix-blend-mode:normal;color-interpolation:sRGB;color-interpolation-filters:linearRGB;solid-color:#000000;solid-opacity:1;vector-effect:none;fill:#0058ff;fill-opacity:1;fill-rule:nonzero;stroke:none;stroke-width:20;stroke-linecap:round;stroke-linejoin:round;stroke-miterlimit:2;stroke-dasharray:none;stroke-dashoffset:0;stroke-opacity:1;filter:url(#filter1161-2);color-rendering:auto;image-rendering:auto;shape-rendering:auto;text-rendering:auto;enable-background:accumulate;stop-color:#000000;stop-opacity:1"
   d="M 419.84961,430.00195 C 414.38657,430.08465 410.00099,434.53633 410,440 v 220 c 0.002,7.43312 7.82393,12.26687 14.47266,8.94336 l 220,-110 c 7.36641,-3.68692 7.36641,-14.1998 0,-17.88672 l -220,-110 c -1.43418,-0.71709 -3.01977,-1.07882 -4.62305,-1.05469 z" /><path
   sodipodi:nodetypes="cccccccc"
   id="path1137"
   d="M 419.84961,410.00195 C 414.38657,410.08466 410.00099,414.53633 410,420 v 220 c 0.002,7.43312 7.82393,12.26687 14.47266,8.94336 l 220,-110 c 7.36641,-3.68692 7.36641,-14.1998 0,-17.88672 l -220,-110 c -1.43418,-0.71709 -3.01977,-1.07882 -4.62305,-1.05469 z"
   style="color:#000000;font-style:normal;font-variant:normal;font-weight:normal;font-stretch:normal;font-size:medium;line-height:normal;font-family:sans-serif;font-variant-ligatures:normal;font-variant-position:normal;font-variant-caps:normal;font-variant-numeric:normal;font-variant-alternates:normal;font-variant-east-asian:normal;font-feature-settings:normal;font-variation-settings:normal;text-indent:0;text-align:start;text-decoration:none;text-decoration-line:none;text-decoration-style:solid;text-decoration-color:#000000;letter-spacing:normal;word-spacing:normal;text-transform:none;writing-mode:lr-tb;direction:ltr;text-orientation:mixed;dominant-baseline:auto;baseline-shift:baseline;text-anchor:start;white-space:normal;shape-padding:0;shape-margin:0;inline-size:0;clip-rule:nonzero;display:inline;overflow:visible;visibility:visible;opacity:1;isolation:auto;mix-blend-mode:normal;color-interpolation:sRGB;color-interpolation-filters:linearRGB;solid-color:#000000;solid-opacity:1;vector-effect:none;fill:url(#linearGradient1189);fill-opacity:1;fill-rule:nonzero;stroke:none;stroke-width:20;stroke-linecap:round;stroke-linejoin:round;stroke-miterlimit:2;stroke-dasharray:none;stroke-dashoffset:0;stroke-opacity:1;color-rendering:auto;image-rendering:auto;shape-rendering:auto;text-rendering:auto;enable-background:accumulate;stop-color:#000000;stop-opacity:1" /><path
   sodipodi:nodetypes="ccssccsc"
   id="path1116"
   d="M 380,810 V 280 c 0,0 0,-40 -40,-40 -23.33333,0 -46.66667,0 -70,0 -40,0 -40,40 -40,40 v 440 c 0,0 2,88 90,90 19.99484,0.45443 60,0 60,0 z"
   style="fill:url(#linearGradient1205);fill-opacity:1" /><path
   style="clip-rule:evenodd;fill:url(#linearGradient1197);fill-rule:evenodd;stroke-linejoin:round;stroke-miterlimit:2;fill-opacity:1"
   d="M 800,240 H 450 c 0,0 -40,0 -40,40 v 70 c 0,40 40,40 40,40 h 260 c 0,0 88,-2 90,-90 0.45443,-19.99484 0,-60 0,-60 z"
   id="path1116-1"
   sodipodi:nodetypes="ccssccsc" /><path
   d="M 800.17188 265.11133 C 800.14418 270.5633 800.09612 275.77064 800 280 C 798 368 710 370 710 370 L 450 370 C 450 370 410 370 410 330 L 410 350 C 410 390 450 390 450 390 L 710 390 C 710 390 798 388 800 300 C 800.21216 290.66511 800.21718 277.06211 800.17188 265.11133 z M 230 700 L 230 720 C 230 720 232 808 320 810 C 339.99484 810.45443 380 810 380 810 L 380 790 C 380 790 339.99484 790.45443 320 790 C 232 788 230 700 230 700 z "
   style="clip-rule:evenodd;fill:#690000;fill-opacity:1;fill-rule:evenodd;stroke-linejoin:round;stroke-miterlimit:2;filter:url(#filter1380);opacity:0.5"
   id="path1116-9-6" /><path
   d="M 642.35938 520 L 424.47266 628.94336 C 417.82393 632.26687 410.002 627.43312 410 620 L 410 640 C 410.002 647.43312 417.82393 652.26687 424.47266 648.94336 L 644.47266 538.94336 C 651.83907 535.25644 651.83907 524.74356 644.47266 521.05664 L 642.35938 520 z "
   style="color:#000000;font-style:normal;font-variant:normal;font-weight:normal;font-stretch:normal;font-size:medium;line-height:normal;font-family:sans-serif;font-variant-ligatures:normal;font-variant-position:normal;font-variant-caps:normal;font-variant-numeric:normal;font-variant-alternates:normal;font-variant-east-asian:normal;font-feature-settings:normal;font-variation-settings:normal;text-indent:0;text-align:start;text-decoration:none;text-decoration-line:none;text-decoration-style:solid;text-decoration-color:#000000;letter-spacing:normal;word-spacing:normal;text-transform:none;writing-mode:lr-tb;direction:ltr;text-orientation:mixed;dominant-baseline:auto;baseline-shift:baseline;text-anchor:start;white-space:normal;shape-padding:0;shape-margin:0;inline-size:0;clip-rule:nonzero;display:inline;overflow:visible;visibility:visible;opacity:0.5;isolation:auto;mix-blend-mode:normal;color-interpolation:sRGB;color-interpolation-filters:linearRGB;solid-color:#000000;solid-opacity:1;vector-effect:none;fill:#20546c;fill-opacity:1;fill-rule:nonzero;stroke:none;stroke-width:20;stroke-linecap:round;stroke-linejoin:round;stroke-miterlimit:2;stroke-dasharray:none;stroke-dashoffset:0;stroke-opacity:1;color-rendering:auto;image-rendering:auto;shape-rendering:auto;text-rendering:auto;enable-background:accumulate;stop-color:#000000;stop-opacity:1;filter:url(#filter1375)"
   id="path1137-9-1" /></svg>
