<?xml version="1.0" encoding="UTF-8" standalone="no"?>
<svg
   xmlns:dc="http://purl.org/dc/elements/1.1/"
   xmlns:cc="http://creativecommons.org/ns#"
   xmlns:rdf="http://www.w3.org/1999/02/22-rdf-syntax-ns#"
   xmlns:svg="http://www.w3.org/2000/svg"
   xmlns="http://www.w3.org/2000/svg"
   xmlns:xlink="http://www.w3.org/1999/xlink"
   xmlns:sodipodi="http://sodipodi.sourceforge.net/DTD/sodipodi-0.dtd"
   xmlns:inkscape="http://www.inkscape.org/namespaces/inkscape"
   inkscape:version="1.0 (4035a4fb49, 2020-05-01)"
   sodipodi:docname="osu-bigsur.svg"
   id="svg11"
   version="1.1"
   height="1024"
   width="1024">
  <metadata
     id="metadata15">
    <rdf:RDF>
      <cc:Work
         rdf:about="">
        <dc:format>image/svg+xml</dc:format>
        <dc:type
           rdf:resource="http://purl.org/dc/dcmitype/StillImage" />
        <dc:title></dc:title>
      </cc:Work>
    </rdf:RDF>
  </metadata>
  <sodipodi:namedview
     inkscape:snap-global="true"
     inkscape:current-layer="svg11"
     inkscape:window-maximized="1"
     inkscape:window-y="-8"
     inkscape:window-x="-8"
     inkscape:cy="486.82323"
     inkscape:cx="569.09385"
     inkscape:zoom="0.37150727"
     showgrid="false"
     id="namedview13"
     inkscape:window-height="705"
     inkscape:window-width="1366"
     inkscape:pageshadow="2"
     inkscape:pageopacity="0"
     guidetolerance="10"
     gridtolerance="10"
     objecttolerance="10"
     borderopacity="1"
     bordercolor="#666666"
     pagecolor="#ffffff">
    <inkscape:grid
       id="grid854"
       type="xygrid" />
  </sodipodi:namedview>
  <defs
     id="defs5">
    <linearGradient
       id="linearGradient1173"
       inkscape:collect="always">
      <stop
         id="stop1169"
         offset="0"
         style="stop-color:#ee65a2;stop-opacity:1;" />
      <stop
         id="stop1171"
         offset="1"
         style="stop-color:#ea3d6b;stop-opacity:1" />
    </linearGradient>
    <linearGradient
       id="linearGradient862"
       inkscape:collect="always">
      <stop
         id="stop858"
         offset="0"
         style="stop-color:#ffffff;stop-opacity:1;" />
      <stop
         id="stop860"
         offset="1"
         style="stop-color:#f6d5d5;stop-opacity:1" />
    </linearGradient>
    <filter
       id="blur_shadow">
      <feGaussianBlur
         id="feGaussianBlur2"
         stdDeviation="12" />
    </filter>
    <linearGradient
       gradientUnits="userSpaceOnUse"
       y2="920"
       x2="620"
       y1="100"
       x1="620"
       id="linearGradient864"
       xlink:href="#linearGradient862"
       inkscape:collect="always" />
    <filter
       height="1.1442497"
       y="-0.07212487"
       width="1.1442497"
       x="-0.07212487"
       id="filter1003"
       style="color-interpolation-filters:sRGB"
       inkscape:collect="always">
      <feGaussianBlur
         id="feGaussianBlur1005"
         stdDeviation="21.637461"
         inkscape:collect="always" />
    </filter>
    <clipPath
       id="clipPath1015"
       clipPathUnits="userSpaceOnUse">
      <path
         sodipodi:nodetypes="sssssssss"
         id="path1017"
         style="opacity:1;fill:#ff00ff;stroke-width:0.991914;paint-order:stroke fill markers;stop-color:#000000"
         d="m 322.85735,160.83284 c -89.76107,0 -162.02451,72.26344 -162.02451,162.02451 v 370.28526 c 0,89.76107 72.26344,162.02451 162.02451,162.02451 h 370.28526 c 89.76107,0 162.02451,-72.26344 162.02451,-162.02451 V 322.85735 c 0,-89.76107 -72.26344,-162.02451 -162.02451,-162.02451 z" />
    </clipPath>
    <linearGradient
       gradientUnits="userSpaceOnUse"
       y2="860"
       x2="540"
       y1="340"
       x1="540"
       id="linearGradient1175"
       xlink:href="#linearGradient1173"
       inkscape:collect="always" />
    <filter
       height="1.2636292"
       y="-0.13181462"
       width="1.1106365"
       x="-0.05531827"
       id="filter1376"
       style="color-interpolation-filters:sRGB"
       inkscape:collect="always">
      <feGaussianBlur
         id="feGaussianBlur1378"
         stdDeviation="12.625756"
         inkscape:collect="always" />
    </filter>
    <filter
       height="1.201112"
       y="-0.10055598"
       width="1.0844"
       x="-0.0422"
       id="filter1451"
       style="color-interpolation-filters:sRGB"
       inkscape:collect="always">
      <feGaussianBlur
         id="feGaussianBlur1453"
         stdDeviation="9.6577626"
         inkscape:collect="always" />
    </filter>
    <clipPath
       id="clipPath1455"
       clipPathUnits="userSpaceOnUse">
      <path
         sodipodi:nodetypes="sccccsscsssssssccssccssccccccsccsssssssccccs"
         d="m 746.99023,386.45898 c -7.92803,-0.0507 -16.39609,0.22831 -24.25781,1.1504 1.20353,62.72522 2.54924,88.68549 1.3457,154.77539 25.1575,4.29654 40.78948,2.95067 52.48829,0 -0.53059,-66.76284 0.142,-88.01166 2.6914,-154.10157 0,0 -14.8259,-1.71259 -32.26758,-1.82422 z M 312.2207,443.44922 c -0.88221,-0.007 -1.77348,-0.004 -2.67187,0.0137 -56.56708,1.08963 -77.65642,48.40277 -78.0586,87.48242 -0.37982,36.90665 22.35585,83.33862 72.00391,84.11719 42.98486,0.67408 86.87858,-16.24939 87.48047,-83.44531 0.35269,-39.37512 -23.17458,-87.7231 -78.75391,-88.16797 z m 160.20703,1.09375 c -33.48524,0.0183 -64.06426,13.51412 -64.6289,50.06445 -1.02165,66.13361 75.63547,48.50946 72.67578,65.27344 -4.18245,23.68981 -63.92773,4.03906 -63.92773,4.03906 0,0 -14.11723,20.26185 -12.11329,42.39453 61.58905,25.71866 125.38161,-1.12862 125.83789,-45.75976 0.73772,-72.15905 -79.71738,-44.9066 -72.0039,-68.64063 5.48416,-16.8745 53.16211,2.69336 53.16211,2.69336 0,0 11.49913,-16.53147 12.11328,-40.37695 -15.23819,-6.0092 -33.57534,-9.6971 -51.11524,-9.6875 z m 193.94141,0.0273 c -14.25029,0.17953 -25.73633,2.93164 -25.73633,2.93164 l -0.67187,122.47266 c -43.52607,1.92008 -38.73258,-16.10115 -39.70313,-43.06641 l 0.67188,-79.40625 c 0,0 -28.86041,-6.51566 -52.48828,2.01758 l -0.67383,89.5 c 0,0 -10.55716,73.95615 76.04297,75.36914 39.85668,0.65031 69.98437,-12.78515 69.98437,-12.78515 l -0.67187,-153.42969 c -8.65779,-2.89286 -18.20374,-3.71123 -26.75391,-3.60352 z m -356.14648,41.28907 c 17.11873,-0.19367 26.73537,13.16336 26.91796,43.74023 0.16047,26.87018 -8.12579,43.36069 -24.89843,43.74023 -17.23404,0.38998 -26.74566,-13.04397 -27.5918,-43.74023 -0.78056,-28.31719 8.68432,-43.5492 25.57227,-43.74023 z m 442.54101,70.50195 c -16.45175,-0.18986 -28.58594,2.84765 -28.58594,2.84765 -3.14777,26.70047 0,50.46875 0,50.46875 25.94205,5.75402 52.96094,0 52.96094,0 3.14777,-26.02753 0,-50.46875 0,-50.46875 -8.52747,-2.00842 -16.89693,-2.76135 -24.375,-2.84765 z"
         style="opacity:1;fill:url(#linearGradient1459);fill-opacity:1"
         id="path1457" />
    </clipPath>
    <linearGradient
       y2="620"
       x2="560"
       y1="460"
       x1="560"
       gradientUnits="userSpaceOnUse"
       id="linearGradient1459"
       xlink:href="#linearGradient862"
       inkscape:collect="always" />
    <linearGradient
       y2="620"
       x2="560"
       y1="460"
       x1="560"
       gradientUnits="userSpaceOnUse"
       id="linearGradient1489"
       xlink:href="#linearGradient862"
       inkscape:collect="always" />
  </defs>
  <path
     id="path7"
     transform="translate(0 10)"
     filter="url(#blur_shadow)"
     fill="rgba(0,0,0,0.3)"
     d="M924 355.412c0-9.782 0-18.35-.056-28.133-.049-8.241-.144-16.48-.368-24.716-.484-17.954-1.543-36.061-4.736-53.813-3.238-18.01-8.526-34.77-16.859-51.133a171.963 171.963 0 00-31.661-43.559 172.06 172.06 0 00-43.574-31.64c-16.381-8.335-33.159-13.621-51.188-16.858-17.755-3.188-35.867-4.245-53.82-4.73-8.243-.223-16.485-.317-24.73-.368-9.788-.06-19.576-.055-29.364-.055L553.997 100h-84.999l-111.637.407c-9.807 0-19.614-.005-29.421.055-8.262.051-16.52.145-24.778.368-17.995.485-36.148 1.543-53.945 4.735-18.053 3.236-34.857 8.52-51.259 16.849a172.405 172.405 0 00-43.667 31.644 171.994 171.994 0 00-31.718 43.551c-8.356 16.372-13.654 33.143-16.9 51.162-3.196 17.746-4.255 35.846-4.742 53.792-.222 8.237-.318 16.476-.368 24.716-.06 9.784-.563 21.937-.563 31.72v195.999l.508 112.429c0 9.796-.004 19.592.055 29.388.05 8.252.146 16.502.369 24.751.486 17.976 1.547 36.109 4.746 53.886 3.245 18.032 8.542 34.818 16.891 51.201a172.24 172.24 0 0031.722 43.619 172.444 172.444 0 0043.659 31.684c16.412 8.346 33.224 13.639 51.288 16.88 17.789 3.193 35.936 4.252 53.924 4.737 8.258.223 16.517.318 24.779.368 9.807.059 19.613.059 29.42.059h310.283c9.788 0 19.576 0 29.364-.059 8.245-.05 16.487-.145 24.73-.368 17.96-.486 36.078-1.546 53.841-4.741 18.018-3.241 34.788-8.532 51.159-16.873a172.004 172.004 0 0043.582-31.687 172.23 172.23 0 0031.659-43.612c8.337-16.391 13.625-33.184 16.865-51.229 3.19-17.77 4.248-35.896 4.733-53.865.223-8.25.318-16.5.367-24.751.056-9.796.056-19.592.056-29.388V355.412z" />
  <path
     style="fill:url(#linearGradient864);fill-opacity:1"
     id="path9"
     fill="#fff"
     d="M924 355.412c0-9.782 0-18.35-.056-28.133-.049-8.241-.144-16.48-.368-24.716-.484-17.954-1.543-36.061-4.736-53.813-3.238-18.01-8.526-34.77-16.859-51.133a171.963 171.963 0 00-31.661-43.559 172.06 172.06 0 00-43.574-31.64c-16.381-8.335-33.159-13.621-51.188-16.858-17.755-3.188-35.867-4.245-53.82-4.73-8.243-.223-16.485-.317-24.73-.368-9.788-.06-19.576-.055-29.364-.055L553.997 100h-84.999l-111.637.407c-9.807 0-19.614-.005-29.421.055-8.262.051-16.52.145-24.778.368-17.995.485-36.148 1.543-53.945 4.735-18.053 3.236-34.857 8.52-51.259 16.849a172.405 172.405 0 00-43.667 31.644 171.994 171.994 0 00-31.718 43.551c-8.356 16.372-13.654 33.143-16.9 51.162-3.196 17.746-4.255 35.846-4.742 53.792-.222 8.237-.318 16.476-.368 24.716-.06 9.784-.563 21.937-.563 31.72v195.999l.508 112.429c0 9.796-.004 19.592.055 29.388.05 8.252.146 16.502.369 24.751.486 17.976 1.547 36.109 4.746 53.886 3.245 18.032 8.542 34.818 16.891 51.201a172.24 172.24 0 0031.722 43.619 172.444 172.444 0 0043.659 31.684c16.412 8.346 33.224 13.639 51.288 16.88 17.789 3.193 35.936 4.252 53.924 4.737 8.258.223 16.517.318 24.779.368 9.807.059 19.613.059 29.42.059h310.283c9.788 0 19.576 0 29.364-.059 8.245-.05 16.487-.145 24.73-.368 17.96-.486 36.078-1.546 53.841-4.741 18.018-3.241 34.788-8.532 51.159-16.873a172.004 172.004 0 0043.582-31.687 172.23 172.23 0 0031.659-43.612c8.337-16.391 13.625-33.184 16.865-51.229 3.19-17.77 4.248-35.896 4.733-53.865.223-8.25.318-16.5.367-24.751.056-9.796.056-19.592.056-29.388V355.412z" />
  <path
     sodipodi:nodetypes="sssssssss"
     id="path1017-6"
     style="opacity:1;fill:url(#linearGradient1175);stroke-width:1.02858;paint-order:stroke fill markers;stop-color:#000000;fill-opacity:1"
     d="M 316.01366,148 C 222.93462,148 148,222.93462 148,316.01367 V 699.98634 C 148,793.06538 222.93462,868 316.01366,868 H 699.98633 C 793.06538,868 868,793.06538 868,699.98634 V 316.01367 C 868,222.93462 793.06538,148 699.98633,148 Z" />
  <path
     d="M 316.01367 148 C 305.83182 148 295.86664 148.89623 286.19336 150.61523 L 392.51172 326.80078 L 489.75391 148 L 316.01367 148 z M 491.62305 148 L 597.08398 322.76367 L 692.13086 148 L 491.62305 148 z M 219.58008 244.54102 L 148 376.15625 L 148 430.96289 L 333.77539 433.77734 L 219.58008 244.54102 z M 578.13672 343.89062 L 409.73047 346.23242 L 488.83008 479.78125 L 578.13672 343.89062 z M 645.26367 387.57031 L 589.17773 490.69727 L 708.58789 492.50586 L 645.26367 387.57031 z M 397.70508 642.91797 L 353.65039 723.91992 L 447.44336 725.3418 L 397.70508 642.91797 z "
     style="fill:#f076ad;stroke-width:2.42424;fill-opacity:1;opacity:0.7"
     id="path1047-2" />
  <path
     d="M 722.47852 174.61328 L 634.84961 335.73828 L 821.41406 338.56641 L 722.47852 174.61328 z M 508.73828 220.72266 L 467.01562 297.4375 L 555.84375 298.7832 L 508.73828 220.72266 z M 864.58398 486.85547 L 768.32227 663.85156 L 868 665.36133 L 868 492.51562 L 864.58398 486.85547 z M 669.14258 523.50195 L 566.29688 712.60352 L 785.25586 715.91992 L 669.14258 523.50195 z M 309.32617 722.46484 L 269.98047 794.81055 L 353.74805 796.08008 L 309.32617 722.46484 z "
     style="fill:#f6b7d3;fill-opacity:1;opacity:0.6"
     id="path1047" />
  <path
     d="M 314.89844 185.64844 L 363.5293 266.23633 L 406.60352 187.03711 L 314.89844 185.64844 z M 659.96875 224.51562 L 646.75977 248.80469 L 674.88281 249.23047 L 659.96875 224.51562 z M 370.23633 262.19922 L 351.27148 297.07031 L 391.64844 297.68164 L 370.23633 262.19922 z M 828.30273 292.01367 L 772.21484 395.14062 L 868 396.5918 L 868 357.79688 L 828.30273 292.01367 z M 621.875 351.23047 L 594.56055 401.45117 L 652.71094 402.33398 L 621.875 351.23047 z M 201.21484 411.56836 L 158.27344 490.52734 L 249.69922 491.91211 L 201.21484 411.56836 z M 245.62891 566.34375 L 202.68555 645.30273 L 294.11328 646.6875 L 245.62891 566.34375 z M 662.51758 668.54883 L 605.10156 774.12109 L 727.34375 775.97266 L 662.51758 668.54883 z M 470.20117 690.18555 L 373.49609 868 L 577.50391 868 L 470.20117 690.18555 z "
     style="fill:#f6a8ca;stroke-width:0.454545;fill-opacity:1;opacity:0.6"
     id="path1066" />
  <path
     d="M 594.3418 274.20898 L 544.11914 366.55469 L 651.04688 368.17383 L 594.3418 274.20898 z M 810.45898 286.62891 L 707.61328 475.73047 L 868 478.16016 L 868 381.98438 L 810.45898 286.62891 z M 782.30078 535.30664 L 724.88281 640.87891 L 847.125 642.73242 L 782.30078 535.30664 z M 508.17188 689.04492 L 463.59375 771.00977 L 558.50195 772.44727 L 508.17188 689.04492 z "
     style="fill:#f17fb2;stroke-width:1.20376;fill-opacity:1;opacity:0.6"
     id="path1070" />
  <path
     clip-path="url(#clipPath1015)"
     transform="matrix(1.0369645,0,0,1.0369645,-18.777945,-18.777945)"
     d="M 316.01367,148 C 222.93462,148 148,222.93462 148,316.01367 V 699.98633 C 148,793.06538 222.93462,868 316.01367,868 H 699.98633 C 793.06538,868 868,793.06538 868,699.98633 V 316.01367 C 868,222.93462 793.06538,148 699.98633,148 Z m 15.22461,28.55078 h 353.52344 c 85.69732,0 154.6875,68.99019 154.6875,154.6875 v 353.52344 c 0,85.69732 -68.99018,154.6875 -154.6875,154.6875 H 331.23828 c -85.69731,0 -154.6875,-68.99018 -154.6875,-154.6875 V 331.23828 c 0,-85.69731 68.99019,-154.6875 154.6875,-154.6875 z"
     style="opacity:0.6;fill:#000000;stroke-width:1.02858;paint-order:stroke fill markers;filter:url(#filter1003);stop-color:#000000"
     id="rect856" />
  <path
     id="path1177-2"
     style="opacity:0.7;filter:url(#filter1376)"
     d="m 746.99023,400.45871 c -7.92803,-0.0507 -16.39609,0.22831 -24.25781,1.1504 1.20353,62.72522 2.54924,88.68549 1.3457,154.77539 25.1575,4.29654 40.78948,2.95067 52.48829,0 -0.53059,-66.76284 0.142,-88.01166 2.6914,-154.10157 0,0 -14.8259,-1.71259 -32.26758,-1.82422 z M 312.2207,457.44895 c -0.88221,-0.007 -1.77348,-0.004 -2.67187,0.0137 -56.56708,1.08963 -77.65642,48.40277 -78.0586,87.48242 -0.37982,36.90665 22.35585,83.33862 72.00391,84.11719 42.98486,0.67408 86.87858,-16.24939 87.48047,-83.44531 0.35269,-39.37512 -23.17458,-87.7231 -78.75391,-88.16797 z m 160.20703,1.09375 c -33.48524,0.0183 -64.06426,13.51412 -64.6289,50.06445 -1.02165,66.13361 82.62472,51.46006 72.67578,65.27344 -17.30467,24.02628 -63.92773,4.03906 -63.92773,4.03906 0,0 -14.11723,20.26185 -12.11329,42.39453 61.58905,25.71866 125.38161,-1.12862 125.83789,-45.75976 0.73772,-72.15905 -79.71738,-44.9066 -72.0039,-68.64063 5.48416,-16.8745 53.16211,2.69336 53.16211,2.69336 0,0 11.49913,-16.53147 12.11328,-40.37695 -15.23819,-6.0092 -33.57534,-9.6971 -51.11524,-9.6875 z m 193.94141,0.0273 c -14.25029,0.17953 -25.73633,2.93164 -25.73633,2.93164 l -0.67187,122.47266 c -43.52607,1.92008 -38.73258,-16.10115 -39.70313,-43.06641 l 0.67188,-79.40625 c 0,0 -28.86041,-6.51566 -52.48828,2.01758 l -0.67383,89.5 c 0,0 -10.55716,73.95615 76.04297,75.36914 39.85668,0.65031 69.98437,-12.78515 69.98437,-12.78515 l -0.67187,-153.42969 c -8.65779,-2.89286 -18.20374,-3.71123 -26.75391,-3.60352 z m -356.14648,41.28907 c 17.11873,-0.19367 26.73537,13.16336 26.91796,43.74023 0.16047,26.87018 -8.12579,43.36069 -24.89843,43.74023 -17.23404,0.38998 -26.74566,-13.04397 -27.5918,-43.74023 -0.78056,-28.31719 8.68432,-43.5492 25.57227,-43.74023 z m 442.54101,70.50195 c -16.45175,-0.18986 -28.58594,2.84765 -28.58594,2.84765 -3.14777,26.70047 0,50.46875 0,50.46875 25.94205,5.75402 52.96094,0 52.96094,0 3.14777,-26.02753 0,-50.46875 0,-50.46875 -8.52747,-2.00842 -16.89693,-2.76135 -24.375,-2.84765 z" />
  <path
     sodipodi:nodetypes="sccccsscsssssssccssccssccccccsccsssssssccccs"
     d="m 746.99023,386.45898 c -7.92803,-0.0507 -16.39609,0.22831 -24.25781,1.1504 1.20353,62.72522 2.54924,88.68549 1.3457,154.77539 25.1575,4.29654 40.78948,2.95067 52.48829,0 -0.53059,-66.76284 0.142,-88.01166 2.6914,-154.10157 0,0 -14.8259,-1.71259 -32.26758,-1.82422 z M 312.2207,443.44922 c -0.88221,-0.007 -1.77348,-0.004 -2.67187,0.0137 -56.56708,1.08963 -77.65642,48.40277 -78.0586,87.48242 -0.37982,36.90665 22.35585,83.33862 72.00391,84.11719 42.98486,0.67408 86.87858,-16.24939 87.48047,-83.44531 0.35269,-39.37512 -23.17458,-87.7231 -78.75391,-88.16797 z m 160.20703,1.09375 c -33.48524,0.0183 -64.06426,13.51412 -64.6289,50.06445 -1.02165,66.13361 75.63547,48.50946 72.67578,65.27344 -4.18245,23.68981 -63.92773,4.03906 -63.92773,4.03906 0,0 -14.11723,20.26185 -12.11329,42.39453 61.58905,25.71866 125.38161,-1.12862 125.83789,-45.75976 0.73772,-72.15905 -79.71738,-44.9066 -72.0039,-68.64063 5.48416,-16.8745 53.16211,2.69336 53.16211,2.69336 0,0 11.49913,-16.53147 12.11328,-40.37695 -15.23819,-6.0092 -33.57534,-9.6971 -51.11524,-9.6875 z m 193.94141,0.0273 c -14.25029,0.17953 -25.73633,2.93164 -25.73633,2.93164 l -0.67187,122.47266 c -43.52607,1.92008 -38.73258,-16.10115 -39.70313,-43.06641 l 0.67188,-79.40625 c 0,0 -28.86041,-6.51566 -52.48828,2.01758 l -0.67383,89.5 c 0,0 -10.55716,73.95615 76.04297,75.36914 39.85668,0.65031 69.98437,-12.78515 69.98437,-12.78515 l -0.67187,-153.42969 c -8.65779,-2.89286 -18.20374,-3.71123 -26.75391,-3.60352 z m -356.14648,41.28907 c 17.11873,-0.19367 26.73537,13.16336 26.91796,43.74023 0.16047,26.87018 -8.12579,43.36069 -24.89843,43.74023 -17.23404,0.38998 -26.74566,-13.04397 -27.5918,-43.74023 -0.78056,-28.31719 8.68432,-43.5492 25.57227,-43.74023 z m 442.54101,70.50195 c -16.45175,-0.18986 -28.58594,2.84765 -28.58594,2.84765 -3.14777,26.70047 0,50.46875 0,50.46875 25.94205,5.75402 52.96094,0 52.96094,0 3.14777,-26.02753 0,-50.46875 0,-50.46875 -8.52747,-2.00842 -16.89693,-2.76135 -24.375,-2.84765 z"
     style="opacity:1;fill:url(#linearGradient1489);fill-opacity:1"
     id="path1457-8" />
  <path
     clip-path="url(#clipPath1455)"
     d="M 747.64453 386.14844 C 739.69502 386.09764 731.2053 386.37619 723.32227 387.30078 C 724.52907 450.19598 725.87672 476.22709 724.66992 542.49609 C 749.89559 546.80427 765.57026 545.45475 777.30078 542.49609 C 776.76875 475.55233 777.44369 454.24556 780 387.97656 C 780 387.97656 765.13347 386.26038 747.64453 386.14844 z M 747.58398 395.5957 C 756.65052 395.6537 764.47011 396.12513 770.26758 396.58008 C 768.1687 451.62684 767.44682 478.16906 767.82422 534.72461 C 759.62533 536.01319 748.88001 536.14687 734.20898 534.2207 C 735.07303 478.19613 734.0349 448.55719 732.95117 396.02539 C 737.82101 395.73555 742.7626 395.56489 747.58398 395.5957 z M 311.69727 443.29297 C 310.81267 443.28597 309.9184 443.28894 309.01758 443.30664 C 252.29721 444.39923 231.15132 491.83984 230.74805 531.02539 C 230.3672 568.03205 253.16467 614.59041 302.94727 615.37109 C 346.04861 616.047 390.06054 599.07723 390.66406 531.69922 C 391.01771 492.2174 367.42721 443.73904 311.69727 443.29297 z M 472.33789 444.38867 C 438.76191 444.40697 408.10133 457.94046 407.53516 494.58984 C 406.51074 560.90266 483.37396 543.22965 480.40625 560.03906 C 476.21247 583.79307 416.30664 564.08984 416.30664 564.08984 C 416.30664 564.08984 402.15079 584.40695 404.16016 606.59961 C 465.91611 632.38796 529.88233 605.46692 530.33984 560.71484 C 531.07956 488.36025 450.40623 515.68702 458.14062 491.88867 C 463.63964 474.96844 511.44531 494.58984 511.44531 494.58984 C 511.44531 494.58984 522.97599 478.01362 523.5918 454.10352 C 508.31232 448.07804 489.92532 444.37905 472.33789 444.38867 z M 666.80469 444.41602 C 652.51578 444.59603 641 447.35547 641 447.35547 L 640.32617 570.16016 C 596.68215 572.08545 601.4888 554.01489 600.51562 526.97656 L 601.18945 447.35547 C 601.18945 447.35547 572.25049 440.82254 548.55859 449.37891 L 547.88281 539.12109 C 547.88281 539.12109 537.29606 613.27849 624.13086 614.69531 C 664.09555 615.34738 694.30469 601.875 694.30469 601.875 L 693.63086 448.0293 C 684.94961 445.1286 675.37803 444.30801 666.80469 444.41602 z M 311.62109 452.74023 L 311.62305 452.74023 C 336.758 452.94198 353.33888 463.42583 364.65039 478.52344 C 375.9622 493.62145 381.37646 513.79067 381.2168 531.61523 C 380.9334 563.25421 371.06024 580.80944 357.00586 591.54688 C 342.95148 602.2843 323.35639 606.24155 303.0957 605.92383 C 281.12628 605.57931 266.14273 595.64489 255.68359 581.23242 C 245.22446 566.81995 240.02722 547.64566 240.19727 531.12305 C 240.38182 513.19045 245.45919 493.31899 256.375 478.47852 C 267.29081 463.63804 283.44931 453.24992 309.19922 452.75391 L 309.20117 452.75391 L 309.20312 452.75195 C 310.00155 452.73625 310.80887 452.73383 311.62109 452.74023 z M 472.34375 453.83789 C 486.21941 453.82989 500.81748 456.48366 513.59961 460.6875 C 512.37471 470.52039 509.45562 477.91297 507.04688 482.875 C 502.22713 481.21037 495.71736 479.17264 488.89258 477.66602 C 482.04704 476.15481 474.88666 475.0476 467.82227 475.77344 C 464.29007 476.13635 460.67856 476.95843 457.20508 479.00977 C 453.7316 481.0611 450.54657 484.68478 449.1543 488.96875 C 447.52346 493.98676 448.38381 500.87368 451.94336 504.9375 C 455.50291 509.00132 459.62039 510.39367 463.57812 511.56641 C 471.49363 513.91188 480.45015 514.85172 489.14062 517.21094 C 497.83112 519.57015 505.72087 523.07867 511.32422 529.17578 C 516.92757 535.27289 521.05768 544.27999 520.89062 560.61914 C 520.70769 578.51344 508.08881 593.15593 486.85742 601.28516 C 467.04515 608.87102 440.38257 609.63919 413.5625 599.97852 C 414.16334 590.02732 418.04698 580.9401 420.95312 575.25977 C 427.00299 576.95831 435.33402 579.0496 445.60156 580.3457 C 453.95438 581.40011 462.63683 581.8526 470.83203 579.88086 C 479.02723 577.90912 487.95592 571.6333 489.71289 561.68164 C 490.66629 556.28149 487.12224 549.87963 483.45898 547.34766 C 479.79573 544.81569 476.27369 543.87181 472.48438 542.89648 C 464.90573 540.94584 456.04182 539.57943 447.57227 536.87695 C 439.10271 534.17448 431.40108 530.29372 425.98242 524.16797 C 420.56377 518.04222 416.75441 509.49431 416.98242 494.73438 C 417.22509 479.02582 423.0985 470.09113 432.80469 463.61133 C 442.51088 457.13153 456.8236 453.84635 472.34375 453.83789 z M 666.92383 453.86523 C 672.57605 453.79403 678.59547 454.22331 684.21484 455.34375 L 684.82812 595.39062 C 674.8334 598.95587 652.2012 605.70353 624.28516 605.24805 C 583.56269 604.58361 569.08383 588.5124 562.09766 572.58203 C 555.11148 556.65167 557.23633 540.45703 557.23633 540.45703 L 557.32617 539.82812 L 557.95312 456.56055 C 570.36861 453.70505 583.61029 454.57298 591.66992 455.55273 L 591.06445 527.10742 L 591.07227 527.31641 C 591.53602 540.20115 589.56139 552.47641 596.21484 564.11914 C 599.54157 569.94051 605.5213 574.62258 612.91992 577.01758 C 620.31855 579.41258 629.18869 580.10927 640.74219 579.59961 L 649.72461 579.20312 L 650.4043 455.23242 C 654.6739 454.59404 660.47213 453.94651 666.92383 453.86523 z M 309.58789 476.36914 C 298.30077 476.49682 287.88333 482.61884 282.10547 492.34375 C 276.32761 502.06866 274.18581 514.6404 274.60742 529.93555 C 275.05746 546.26215 277.60338 558.89368 283.79688 568.4375 C 289.99036 577.98132 300.79873 583.23239 311.93164 582.98047 C 323.39975 582.72096 333.46377 575.89171 338.84375 566.12695 C 344.22373 556.3622 346.21913 544.07341 346.13281 529.61914 C 346.03541 513.30697 343.64 500.6553 337.51562 491.08398 C 331.39126 481.51267 320.64749 476.24402 309.58789 476.36914 z M 309.69336 485.81641 C 326.85847 485.62222 336.50246 499.01605 336.68555 529.67578 C 336.84645 556.61878 328.53684 573.15459 311.71875 573.53516 C 294.43801 573.9262 284.90116 560.45522 284.05273 529.67578 C 283.27005 501.28186 292.75964 486.00796 309.69336 485.81641 z M 753.43359 556.50977 C 736.93726 556.3194 724.77148 559.36523 724.77148 559.36523 C 721.61518 586.13805 724.77148 609.9707 724.77148 609.9707 C 750.78383 615.74031 777.875 609.9707 777.875 609.9707 C 781.0313 583.87264 777.875 559.36523 777.875 559.36523 C 769.32442 557.35137 760.93193 556.59631 753.43359 556.50977 z M 750.24609 565.95898 C 751.24183 565.94697 752.26792 565.9468 753.32422 565.95898 C 758.24543 566.01578 763.59276 566.56565 769.01562 567.42383 C 769.61631 573.91259 770.26035 585.47967 768.99219 601.73242 C 761.15776 602.76247 747.70422 603.88123 733.61523 601.89258 C 733.00794 595.44766 732.36732 583.95212 733.67969 567.32227 C 737.78359 566.68154 743.27597 566.04312 750.24609 565.95898 z "
     style="color:#000000;font-style:normal;font-variant:normal;font-weight:normal;font-stretch:normal;font-size:medium;line-height:normal;font-family:sans-serif;font-variant-ligatures:normal;font-variant-position:normal;font-variant-caps:normal;font-variant-numeric:normal;font-variant-alternates:normal;font-variant-east-asian:normal;font-feature-settings:normal;font-variation-settings:normal;text-indent:0;text-align:start;text-decoration:none;text-decoration-line:none;text-decoration-style:solid;text-decoration-color:#000000;letter-spacing:normal;word-spacing:normal;text-transform:none;writing-mode:lr-tb;direction:ltr;text-orientation:mixed;dominant-baseline:auto;baseline-shift:baseline;text-anchor:start;white-space:normal;shape-padding:0;shape-margin:0;inline-size:0;clip-rule:nonzero;display:inline;overflow:visible;visibility:visible;isolation:auto;mix-blend-mode:normal;color-interpolation:sRGB;color-interpolation-filters:linearRGB;solid-color:#000000;solid-opacity:1;vector-effect:none;fill-opacity:1;fill-rule:nonzero;stroke:none;stroke-width:18.8976378;stroke-linecap:butt;stroke-linejoin:miter;stroke-miterlimit:4;stroke-dasharray:none;stroke-dashoffset:0;stroke-opacity:1;color-rendering:auto;image-rendering:auto;shape-rendering:auto;text-rendering:auto;enable-background:accumulate;stop-color:#000000;filter:url(#filter1451);fill:#ff0000;opacity:0.4"
     id="path1446" />
</svg>
